<svg width="20px" height="20px" viewBox="0 0 60 60" version="1.1" xmlns="http://www.w3.org/2000/svg" xmlns:xlink="http://www.w3.org/1999/xlink">
    <path d="M60,47.3863636 C60,48.9204545 59.3181818,51.9034091 58.6789773,53.3096591 C57.7840909,55.3977273 55.3977273,56.7613636 53.4801136,57.8267045 C50.9659091,59.1903409 48.4090909,60 45.5539773,60 C41.5909091,60 38.0113636,58.3806818 34.3892045,57.0596591 C31.7897727,56.1221591 29.2755682,54.9715909 26.9318182,53.5227273 C19.6875,49.0482955 10.9517045,40.3125 6.47727273,33.0681818 C5.02840909,30.7244318 3.87784091,28.2102273 2.94034091,25.6107955 C1.61931818,21.9886364 0,18.4090909 0,14.4460227 C0,11.5909091 0.809659091,9.03409091 2.17329545,6.51988636 C3.23863636,4.60227273 4.60227273,2.21590909 6.69034091,1.32102273 C8.09659091,0.681818182 11.0795455,0 12.6136364,0 C12.9119318,0 13.2102273,0 13.5085227,0.127840909 C14.4034091,0.426136364 15.3409091,2.51420455 15.7670455,3.36647727 C17.1306818,5.79545455 18.4517045,8.26704545 19.8579545,10.6534091 C20.5397727,11.7613636 21.8181818,13.125 21.8181818,14.4460227 C21.8181818,17.0454545 14.1051136,20.8380682 14.1051136,23.1392045 C14.1051136,24.2897727 15.1704545,25.78125 15.7670455,26.8039773 C20.0710227,34.5596591 25.4403409,39.9289773 33.1960227,44.2329545 C34.21875,44.8295455 35.7102273,45.8948864 36.8607955,45.8948864 C39.1619318,45.8948864 42.9545455,38.1818182 45.5539773,38.1818182 C46.875,38.1818182 48.2386364,39.4602273 49.3465909,40.1420455 C51.7329545,41.5482955 54.2045455,42.8693182 56.6335227,44.2329545 C57.4857955,44.6590909 59.5738636,45.5965909 59.8721591,46.4914773 C60,46.7897727 60,47.0880682 60,47.3863636 Z" id="path-1"></path>
</svg>
