<svg width="29" height="30" viewBox="0 0 29 30" fill="none" xmlns="http://www.w3.org/2000/svg">
<path fill-rule="evenodd" clip-rule="evenodd" d="M28.4419 7.969C28.7852 8.545 28.977 9.19869 28.9994 9.869C29.0245 11.3416 28.2503 12.7122 26.9767 13.45V28.5C26.9767 29.3284 26.3057 30 25.478 30H3.4975C2.6698 30 1.99883 29.3284 1.99883 28.5V13.459C1.96124 13.4373 1.92402 13.415 1.88718 13.3921C0.0139003 12.2281 -0.561964 9.7645 0.601068 7.8895C0.601925 7.88821 0.603336 7.88729 0.604666 7.88643C0.606434 7.88527 0.608061 7.88421 0.608061 7.8825L2.04329 2.8625C2.10461 2.648 2.30044 2.50012 2.52336 2.5H3.99706V1.5C3.99706 0.671562 4.66803 0 5.49573 0H23.4798C24.3075 0 24.9785 0.671562 24.9785 1.5V2.5H26.5021C26.725 2.50012 26.9209 2.648 26.9822 2.8625L28.4419 7.969ZM5.49573 1C5.21985 1 4.99617 1.22388 4.99617 1.5V2.5H23.9794V1.5C23.9794 1.22388 23.7557 1 23.4798 1H5.49573ZM10.9909 18.5V29H17.9847V18.5C17.9847 18.2239 17.761 18 17.4851 18H11.4904C11.2145 18 10.9909 18.2239 10.9909 18.5ZM25.478 29C25.7539 29 25.9776 28.7761 25.9776 28.5V13.8735C25.6887 13.9499 25.392 13.9923 25.0934 14H25.0094C23.5442 14.0007 22.1954 13.201 21.4921 11.9145C21.1277 12.5839 20.5797 13.1349 19.9128 13.5029C17.9812 14.5684 15.5523 13.8648 14.4878 11.9315C14.1233 12.5936 13.5788 13.1386 12.9173 13.5033C10.9861 14.5682 8.55796 13.8645 7.49396 11.9315C6.61917 13.5357 4.76319 14.3349 2.99794 13.8675V28.5C2.99794 28.7761 3.22162 29 3.4975 29H9.99175V18.5C9.99175 17.6716 10.6627 17 11.4904 17H17.4851C18.3128 17 18.9838 17.6716 18.9838 18.5V29H25.478ZM25.0729 13C25.4835 12.9913 25.8873 12.8929 26.2558 12.7115C27.3384 12.1985 28.0216 11.0997 28.0033 9.901C27.9859 9.37781 27.8308 8.86844 27.5537 8.4245C27.5277 8.38163 27.5084 8.33512 27.4962 8.2865L26.1275 3.5H2.89803L1.52974 8.293C1.50639 8.36831 1.4653 8.43694 1.40985 8.493C1.14121 8.94969 0.99959 9.47006 0.999715 10C1.00103 11.655 2.34115 12.9963 3.99469 12.9976C5.65003 12.9989 6.99309 11.6569 6.9944 10C6.9944 9.72388 7.21808 9.5 7.49396 9.5C7.76984 9.5 7.99352 9.72388 7.99352 10C7.99352 11.6569 9.33545 13 10.9909 13C12.6463 13 13.9882 11.6569 13.9882 10C13.9882 9.72388 14.2119 9.5 14.4878 9.5C14.7636 9.5 14.9873 9.72388 14.9873 10C14.9873 11.6569 16.3293 13 17.9847 13C19.6401 13 20.982 11.6569 20.982 10C20.982 9.72388 21.2057 9.5 21.4816 9.5H21.4941H21.5065C21.7824 9.5 22.0061 9.72388 22.0061 10C22.0061 10.0234 22.0064 10.0469 22.0069 10.0703C22.0453 11.7267 23.4179 13.0384 25.0729 13ZM12.0007 23H13.0007V24H12.0007V23Z" fill="black"/>
</svg>
