<svg width="40" height="31" viewBox="0 0 40 31" fill="none" xmlns="http://www.w3.org/2000/svg">
<path d="M37.6044 28.0255C39.1289 26.5466 39.9274 24.624 39.9274 22.2577C39.9274 20.0394 39.2015 18.1168 37.8221 16.5639C36.4428 15.011 34.4102 13.9018 31.8693 13.3103L29.6915 12.7927V12.7187H29.6189V12.7927H29.6915V12.7187H29.6189C30.127 10.1306 30.9256 7.83827 32.0871 5.98962C33.2486 4.14097 34.5554 2.66206 36.1525 1.47892L35.5717 0.073946H35.4991L35.4265 0H35.4991V0.073946H35.4265V0C31.9419 1.70076 28.9655 4.43676 26.5699 7.98617C24.1742 11.6095 23.0127 15.4547 23.0127 19.5957C23.0127 22.7754 23.8113 25.3635 25.4809 27.2861C27.078 29.2826 29.2559 30.2439 31.9419 30.2439C34.1198 30.2439 36.0799 29.5044 37.6044 28.0255ZM14.6642 28.0255C16.1887 26.5466 16.9873 24.624 16.9873 22.2577C16.9873 20.0394 16.2613 18.1168 14.882 16.5639C13.5027 15.011 11.4701 13.9018 8.92922 13.3103L6.75136 12.7927V12.7187H6.67877V12.7927H6.75136V12.7187H6.67877C7.18693 10.1306 7.98548 7.83827 9.14701 5.98962C10.3085 4.14097 11.6878 2.66206 13.2123 1.47892L12.6316 0.221838H12.559V0.147892V0.221838H12.4864L12.4138 0C8.92922 1.70076 5.95281 4.43676 3.55717 7.98617C1.23412 11.6095 0 15.4547 0 19.5957C0 22.7754 0.798548 25.3635 2.46824 27.2861C4.06534 29.2826 6.24319 30.2439 8.92922 30.2439C11.1797 30.2439 13.0672 29.5044 14.6642 28.0255Z" fill="#35383F"/>
</svg>
