<svg class="icon" width="23" height="22" viewBox="0 0 23 22" fill="none" xmlns="http://www.w3.org/2000/svg">
    <path fill-rule="evenodd" clip-rule="evenodd" d="M16.5448 0H6.4552C3.17145 0 0.5 2.67145 0.5 5.9552V16.045C0.5 19.3286 3.17145 22 6.4552 22H16.545C19.8286 22 22.5 19.3286 22.5 16.045V5.9552C22.5 2.67145 19.8286 0 16.5448 0ZM21.2103 16.045C21.2103 18.6174 19.1174 20.7103 16.5448 20.7103H6.4552C3.88261 20.7103 1.78973 18.6174 1.78973 16.045V5.9552C1.78973 3.38261 3.88261 1.28973 6.4552 1.28973H16.545C19.1174 1.28973 21.2103 3.38261 21.2103 5.9552V16.045ZM11.4998 4.98458C8.18285 4.98458 5.48438 7.68305 5.48438 11C5.48438 14.317 8.18285 17.0155 11.4998 17.0155C14.8168 17.0155 17.5153 14.317 17.5153 11C17.5153 7.68305 14.8168 4.98458 11.4998 4.98458ZM11.4998 15.7258C8.89418 15.7258 6.77411 13.6059 6.77411 11C6.77411 8.39439 8.89418 6.27432 11.4998 6.27432C14.1057 6.27432 16.2256 8.39439 16.2256 11C16.2256 13.6059 14.1057 15.7258 11.4998 15.7258ZM15.8816 4.62552C15.8816 3.64546 16.6788 2.84802 17.6591 2.84802C18.6393 2.84802 19.4367 3.64529 19.4367 4.62552C19.4367 5.60574 18.6393 6.40318 17.6591 6.40318C16.6788 6.40318 15.8816 5.60574 15.8816 4.62552ZM17.1713 4.62552C17.1713 4.89441 17.3902 5.11328 17.6591 5.11328C17.9281 5.11328 18.147 4.89441 18.147 4.62552C18.147 4.35646 17.9281 4.13776 17.6591 4.13776C17.3902 4.13776 17.1713 4.35646 17.1713 4.62552Z" fill="#35383F"/>
</svg>
