<svg width="20px" height="20px" viewBox="0 0 60 60" version="1.1" xmlns="http://www.w3.org/2000/svg" xmlns:xlink="http://www.w3.org/1999/xlink">
    <path d="M60,21.2008929 L60,47.7857143 C60,50.7321429 57.5892857,53.1428571 54.6428571,53.1428571 L5.35714286,53.1428571 C2.41071429,53.1428571 0,50.7321429 0,47.7857143 L0,21.2008929 C1.00446429,22.3058036 2.14285714,23.2767857 3.38169643,24.1138393 C8.93973214,27.8973214 14.5647321,31.6808036 20.0223214,35.6651786 C22.8348214,37.7410714 26.3169643,40.2857143 29.9665179,40.2857143 L30.0334821,40.2857143 C33.6830357,40.2857143 37.1651786,37.7410714 39.9776786,35.6651786 C45.4352679,31.7142857 51.0602679,27.8973214 56.6517857,24.1138393 C57.8571429,23.2767857 58.9955357,22.3058036 60,21.2008929 Z M60,11.3571429 C60,15.1071429 57.2209821,18.4888393 54.2745536,20.53125 C49.0513393,24.1473214 43.7946429,27.7633929 38.6049107,31.4129464 C36.4285714,32.9196429 32.7455357,36 30.0334821,36 L29.9665179,36 C27.2544643,36 23.5714286,32.9196429 21.3950893,31.4129464 C16.2053571,27.7633929 10.9486607,24.1473214 5.75892857,20.53125 C3.38169643,18.9241071 0,15.140625 0,12.09375 C0,8.8125 1.77455357,6 5.35714286,6 L54.6428571,6 C57.5558036,6 60,8.41071429 60,11.3571429 Z" id="path-1"></path>
</svg>
