<svg xmlns="http://www.w3.org/2000/svg" width="20" height="20" viewBox="0 0 1000 1000" class="icon">
    <path fill="#444" d="M 500 0C 224 0 0 224 0 500C 0 776 224 1000 500 1000C 776 1000 1000 776 1000 500C 1000 224 776 0 500 0C 500 0 500 0 500 0M 500 50C 749 50 950 251 950 500C 950 749 749 950 500 950C 251 950 50 749 50 500C 50 251 251 50 500 50C 500 50 500 50 500 50 M 511 113C 681 113 812 228 812 383C 812 545 706 675 558 675C 509 675 462 650 446 621C 446 621 422 711 416 733C 399 793 341 877 336 883C 333 887 328 886 327 881C 325 872 308 772 323 710C 332 673 381 477 381 477C 381 477 366 449 366 407C 366 342 406 293 455 293C 496 293 517 323 517 359C 517 399 490 460 476 515C 464 562 500 600 548 600C 635 600 702 512 702 385C 702 273 618 195 498 195C 359 195 277 295 277 398C 277 438 293 481 313 505C 317 510 318 514 317 518C 313 533 305 565 303 572C 301 580 296 582 287 578C 226 551 187 465 187 396C 187 248 300 113 511 113"/>
</svg>