<?xml version="1.0" encoding="UTF-8"?>
<svg class="icon icon-heart" width="60px" height="60px" viewBox="0 0 60 60" version="1.1" xmlns="http://www.w3.org/2000/svg" xmlns:xlink="http://www.w3.org/1999/xlink">
    <g id="Icons-/-Basic-/-Favourites" stroke="none" stroke-width="1" fill="none" fill-rule="evenodd">
        <path class="fill" d="M57.1396154,24.3780769 C56.0042308,29.1919231 53.3723077,33.5776923 49.5357692,37.0530769 L29.8326923,54.6319231 L10.4676923,37.0576923 C6.62423077,33.5753846 3.99346154,29.1907692 2.85692308,24.3769231 C2.04,20.9188462 2.37576923,18.9653846 2.37692308,18.9526923 L2.39423077,18.8361538 C3.14423077,10.3911538 9.00692308,4.26076923 16.3361538,4.26076923 C21.7442308,4.26076923 26.505,7.58384615 28.7642308,12.9319231 L29.8269231,15.4507692 L30.8896154,12.9319231 C33.1130769,7.66576923 38.1253846,4.26192308 43.6615385,4.26192308 C50.9896154,4.26192308 56.8534615,10.3923077 57.6184615,18.9469231 C57.6207692,18.9653846 57.9565385,20.92 57.1396154,24.3780769 Z" id="Path" fill="#FFFFFF" fill-rule="nonzero"></path>
        <path class="outline" d="M59.8973077,18.5869231 C59.0215385,8.94769231 52.1988462,1.95423077 43.6603846,1.95423077 C37.9719231,1.95423077 32.7634615,5.01538462 29.8326923,9.92153846 C26.9284615,4.95192308 21.9334615,1.95307692 16.3361538,1.95307692 C7.79884615,1.95307692 0.975,8.94653846 0.100384615,18.5857692 C0.0311538462,19.0115385 -0.252692308,21.2523077 0.610384615,24.9065385 C1.85423077,30.1773077 4.72730769,34.9715385 8.91692308,38.7676923 L29.8188462,57.7357692 L51.0796154,38.7688462 C55.2692308,34.9715385 58.1423077,30.1784615 59.3861538,24.9065385 C60.2492308,21.2534615 59.9653846,19.0126923 59.8973077,18.5869231 Z M57.1396154,24.3780769 C56.0042308,29.1919231 53.3723077,33.5776923 49.5357692,37.0530769 L29.8326923,54.6319231 L10.4676923,37.0576923 C6.62423077,33.5753846 3.99346154,29.1907692 2.85692308,24.3769231 C2.04,20.9188462 2.37576923,18.9653846 2.37692308,18.9526923 L2.39423077,18.8361538 C3.14423077,10.3911538 9.00692308,4.26076923 16.3361538,4.26076923 C21.7442308,4.26076923 26.505,7.58384615 28.7642308,12.9319231 L29.8269231,15.4507692 L30.8896154,12.9319231 C33.1130769,7.66576923 38.1253846,4.26192308 43.6615385,4.26192308 C50.9896154,4.26192308 56.8534615,10.3923077 57.6184615,18.9469231 C57.6207692,18.9653846 57.9565385,20.92 57.1396154,24.3780769 Z" id="Shape" fill="#2C2F35" fill-rule="nonzero"></path>
    </g>
</svg>
