<svg width="20px" height="20px" viewBox="0 0 60 60" version="1.1" xmlns="http://www.w3.org/2000/svg" xmlns:xlink="http://www.w3.org/1999/xlink">
    <path d="M40,20 C40,14.4921875 35.5078125,10 30,10 C24.4921875,10 20,14.4921875 20,20 C20,25.5078125 24.4921875,30 30,30 C35.5078125,30 40,25.5078125 40,20 Z M50,20 C50,22.3828125 49.7265625,24.84375 48.7109375,26.9921875 L34.4921875,57.2265625 C33.671875,58.9453125 31.875,60 30,60 C28.125,60 26.328125,58.9453125 25.546875,57.2265625 L11.2890625,26.9921875 C10.2734375,24.84375 10,22.3828125 10,20 C10,8.9453125 18.9453125,0 30,0 C41.0546875,0 50,8.9453125 50,20 Z" id="path-1"></path>
</svg>
