<svg width="14" height="14" viewBox="0 0 14 14" fill="none" xmlns="http://www.w3.org/2000/svg">
<path fill-rule="evenodd" clip-rule="evenodd" d="M11.9497 2.05025C12.5998 2.70026 13.1154 3.47194 13.4672 4.32122C13.8189 5.1705 14 6.08075 14 7C14 7.91925 13.8189 8.8295 13.4672 9.67878C13.1154 10.5281 12.5998 11.2997 11.9497 11.9497C11.2997 12.5998 10.5281 13.1154 9.67878 13.4672C8.8295 13.8189 7.91925 14 7 14C6.08075 14 5.1705 13.8189 4.32122 13.4672C3.47194 13.1154 2.70026 12.5998 2.05025 11.9497C0.737498 10.637 -1.38321e-08 8.85652 0 7C1.38321e-08 5.14349 0.737498 3.36301 2.05025 2.05025C3.36301 0.737498 5.14349 1.38321e-08 7 0C8.85652 -1.38321e-08 10.637 0.737498 11.9497 2.05025ZM10.2604 11.3602L2.63903 3.73958C1.85419 4.7882 1.47363 6.08459 1.56713 7.39106C1.66064 8.69752 2.22193 9.92651 3.1481 10.8527C4.07427 11.7788 5.30326 12.3401 6.60972 12.4336C7.91619 12.5271 9.21258 12.1466 10.2612 11.3618L10.2604 11.3602ZM10.85 3.15002C11.7756 4.07588 12.3367 5.30419 12.4305 6.61C12.5244 7.91581 12.1447 9.21173 11.361 10.2604L3.7388 2.63903C4.7875 1.85496 6.08361 1.47504 7.38964 1.56889C8.69568 1.66274 9.92416 2.22407 10.85 3.15002Z" fill="white"/>
</svg>
