<svg width="20px" height="20px" viewBox="0 0 20 20" version="1.1" xmlns="http://www.w3.org/2000/svg" xmlns:xlink="http://www.w3.org/1999/xlink">
    <g id="Icons-/-Cart" stroke="none" stroke-width="1" fill="none" fill-rule="evenodd">
        <g id="Group-8" fill="#2C2F35">
            <path d="M14.7,4.7V4.3c0,0-0.1-4.3-4.5-4.3S5.6,4.3,5.6,4.3l0,0v0.3H2.2v0.7v14V20h16v-0.7v-14V4.7H14.7z M6.4,4.3
	c0-0.2,0.1-3.6,3.8-3.6S14,4.1,14,4.3l0,0v0.3H6.4V4.3L6.4,4.3z M17.5,19.3H2.8v-14h2.8v2.8h0.8V5.3H14v2.8h0.8V5.3h2.8v14H17.5z" id="Icons-/-Basic-/-Cart"></path>
         </g>
     </g>
 </svg>
