<svg xmlns="http://www.w3.org/2000/svg" width="200" height="41.577" viewBox="206.149 375.283 200 41.577"><path d="M306.796 389.064c1.856 1.903 2.923 4.408 2.923 7.053s-1.021 5.151-2.923 7.053c-1.856 1.856-4.362 2.877-7.053 2.877-1.763 0-3.341-.603-4.733-1.856l-.232-.186v11.183l-5.058 1.578v-30.208h5.058v1.485l.232-.232c1.485-1.438 3.202-1.671 4.733-1.671 2.645.047 5.151 1.068 7.053 2.924zm-2.134 7.053c0-2.738-2.274-5.058-4.919-5.058s-4.919 2.32-4.919 5.058c0 2.691 2.274 5.058 4.919 5.058s4.919-2.32 4.919-5.058zm9.791 7.054c-1.856-1.903-2.923-4.408-2.923-7.053s1.021-5.151 2.923-7.053c1.856-1.856 4.362-2.877 7.053-2.877 1.763 0 3.341.603 4.733 1.856l.232.186v-1.671h5.058v19.118h-5.058v-1.485l-.232.232c-1.485 1.438-3.202 1.671-4.733 1.671-2.645-.047-5.151-1.022-7.053-2.924zm2.134-7.054c0 2.738 2.274 5.058 4.919 5.058 2.691 0 4.919-2.32 4.919-5.058 0-2.691-2.274-5.058-4.919-5.058-2.692.001-4.919 2.367-4.919 5.058z"/><path d="M314.453 403.171c-1.856-1.903-2.923-4.408-2.923-7.053s1.021-5.151 2.923-7.053c1.856-1.856 4.362-2.877 7.053-2.877 1.763 0 3.341.603 4.733 1.856l.232.186v-1.671h5.058v19.118h-5.058v-1.485l-.232.232c-1.485 1.438-3.202 1.671-4.733 1.671-2.645-.047-5.151-1.022-7.053-2.924zm2.134-7.054c0 2.738 2.274 5.058 4.919 5.058 2.691 0 4.919-2.32 4.919-5.058 0-2.691-2.274-5.058-4.919-5.058-2.692.001-4.919 2.367-4.919 5.058zm19.953 20.696l4.547-11.044-7.656-19.164h5.615l4.779 11.879 4.826-11.879h5.568l-12.204 30.255h-5.476v-.047z"/><path d="M336.54 416.813l4.547-11.044-7.656-19.164h5.615l4.779 11.879 4.826-11.879h5.568l-12.204 30.255h-5.476v-.047zm-120.647-10.951c-2.599 0-5.058-1.021-6.914-2.831-1.856-1.856-2.831-4.315-2.831-6.914s.974-5.058 2.784-6.914c1.856-1.81 4.315-2.784 6.914-2.784 2.645 0 4.872 1.392 6.264 2.552l.418.325v-2.506h3.109v18.654h-3.109v-2.506l-.418.325c-1.344 1.207-3.572 2.599-6.217 2.599zm0-16.473c-3.666 0-6.682 3.016-6.682 6.728s3.016 6.728 6.682 6.728c3.666 0 6.682-3.016 6.682-6.728s-3.016-6.728-6.682-6.728zm15.36 16.055V389.76h-2.831v-2.923h2.831v-5.522c0-3.387 2.691-6.032 6.079-6.032h3.898l-.789 2.923h-3.016c-1.624 0-3.109 1.485-3.109 3.155v5.429h5.893v2.923h-5.847v15.73h-3.109zm20.695 0c-3.387 0-6.079-2.738-6.079-6.079v-9.605h-2.831v-2.923h2.831v-11.554h3.109v11.508h5.847v2.923h-5.893v9.513c0 1.717 1.485 3.248 3.109 3.248h3.016l.789 2.923h-3.898v.046zm13.318.325c-2.413 0-4.64-1.021-6.264-2.831-1.485-1.624-2.367-3.666-2.506-5.847-.046-.278-.046-.557-.046-.882 0-.742.093-1.485.232-2.181.371-1.67 1.16-3.248 2.32-4.501 1.624-1.763 3.898-2.784 6.311-2.784s4.64.974 6.357 2.784c1.206 1.346 1.995 2.877 2.32 4.501.232 1.439.232 2.32.232 2.738h-14.756v.325c.418 3.295 2.923 5.8 5.8 5.847 1.763-.093 3.527-.789 4.733-1.949l2.599 1.531c-.696.742-1.438 1.346-2.274 1.856-1.485.836-3.202 1.3-5.058 1.393zm0-16.241c-2.413 0-4.64 1.717-5.522 4.315l-.046.046-.186.371h11.508l-.232-.418c-.836-2.597-3.063-4.314-5.522-4.314zm11.925 15.916V386.79h3.109v2.367l.418-.464c1.114-1.206 4.315-2.181 6.496-2.274l-.742 3.109c-3.387.093-6.172 2.738-6.172 5.986v9.93h-3.109z"/><path fill="#2A78AC" d="M380.948 391.848c1.856-1.067 3.573-2.088 5.429-3.155-.603-1.067-.464-.789-1.021-1.81-.557-1.067-.371-1.485.835-1.485 3.48-.046 6.96-.046 10.441 0 1.021 0 1.299.464.742 1.346-1.717 3.016-3.48 6.032-5.197 9.049-.557.974-1.067.974-1.624 0-.603-.974-.464-.742-1.067-1.81-1.81 1.067-3.619 2.088-5.429 3.155.093.278.232.464.371.65 1.346 2.32 1.949 3.434 3.341 5.754 1.624 2.738 5.058 2.877 7.053.371.232-.278.418-.557.603-.882 3.295-5.708 6.589-11.369 9.837-17.076.325-.557.65-1.206.789-1.856.557-2.552-1.346-5.011-3.991-5.011-7.053-.046-14.106-.046-21.113 0-3.202.046-5.151 3.248-3.712 6.079.464.928 1.021 1.81 1.531 2.691.882 1.717 1.114 2.134 2.182 3.99z"/><path fill="#124678" d="M365.31 409.435v-6.264h-2.042c-1.206 0-1.438-.418-.835-1.439 1.717-3.016 3.434-5.986 5.197-8.956.51-.882.974-.974 1.531 0 1.717 3.016 3.48 5.986 5.151 9.002.557.974.278 1.392-.789 1.392h-2.088v6.264h7.332c3.155-.046 5.011-2.923 3.805-5.847-.139-.325-.278-.65-.464-.928-3.248-5.661-6.496-11.322-9.745-16.937-.325-.557-.742-1.16-1.206-1.578-1.903-1.763-4.965-1.346-6.311.928-3.527 6.032-7.053 12.065-10.487 18.143-1.578 2.784.232 6.032 3.341 6.218 1.021.048 5.383.002 7.61.002z"/></svg>