<svg width="20px" height="20px" viewBox="0 0 60 60" version="1.1" xmlns="http://www.w3.org/2000/svg" xmlns:xlink="http://www.w3.org/1999/xlink">
    <g id="Icons-/-Cart" stroke="none" stroke-width="1" fill="none" fill-rule="evenodd">
        <g id="Group-8" transform="translate(6.000000, 0.000000)" fill="#2C2F35">
            <path d="M2,58 L46,58 L46,16 L2,16 L2,58 Z M9,9.999 L9,14 L6,14 L9,9.999 Z M3,2 L3.586,2 L8.68,7.094 L3.5,14 L3,14 L3,2 Z M41.586,2 L37.294,6.292 C37.262,6.324 37.245,6.369 37.217,6.405 C37.179,6.455 37.142,6.502 37.115,6.557 C37.104,6.579 37.087,6.595 37.077,6.618 C37.06,6.658 37.061,6.702 37.05,6.743 C37.033,6.806 37.018,6.865 37.014,6.93 C37.012,6.954 37,6.976 37,7 L37,14 L11,14 L11,7 C11,6.976 10.988,6.954 10.986,6.93 C10.981,6.866 10.966,6.806 10.95,6.743 C10.939,6.701 10.94,6.658 10.923,6.618 C10.914,6.596 10.896,6.579 10.886,6.557 C10.859,6.502 10.821,6.455 10.783,6.405 C10.755,6.369 10.739,6.324 10.706,6.292 L6.414,2 L41.586,2 Z M42,14 L39,14 L39,9.999 L42,14 Z M45,2 L45,14 L44.5,14 L39.32,7.094 L44.414,2 L45,2 Z M47,14 L47,0 L1,0 L1,14 L0,14 L0,60 L48,60 L48,14 L47,14 Z" id="Icons-/-Basic-/-Cart"></path>
        </g>
    </g>
</svg>
