<?xml version="1.0" encoding="UTF-8"?>
<svg width="30px" height="14px" viewBox="0 0 30 14" version="1.1" xmlns="http://www.w3.org/2000/svg" xmlns:xlink="http://www.w3.org/1999/xlink">
    <!-- Generator: Sketch 51.3 (57544) - http://www.bohemiancoding.com/sketch -->
    <title>Icons / Basic / Size Guide</title>
    <desc>Created with Sketch.</desc>
    <defs></defs>
    <g id="Page-1" stroke="none" stroke-width="1" fill="none" fill-rule="evenodd">
        <g id="Product-Detail" transform="translate(-824.000000, -758.000000)" fill="#343840" fill-rule="nonzero">
            <g id="Right-Side" transform="translate(824.000000, 336.000000)">
                <g id="Options" transform="translate(0.000000, 251.000000)">
                    <g id="Group-4" transform="translate(0.000000, 170.000000)">
                        <path d="M28.9150387,15 L0.458896027,15 C0.336829684,15 0.220270093,14.951357 0.13399764,14.8660024 C0.0477251868,14.7806477 0,14.6631703 0,14.541104 L0.00183558411,1.46073161 C0.00183558411,1.207421 0.207421004,1.00183558 0.460731611,1.00183558 L28.9159565,1.00183558 C29.0380228,1.00183558 29.1545824,1.05047856 29.2408549,1.13583322 C29.3271273,1.22118789 29.3748525,1.33866527 29.3748525,1.46073161 L29.3739347,14.541104 C29.3739347,14.7944146 29.1683493,15 28.9150387,15 Z M0.917792055,14.0822079 L28.4561427,14.0822079 L28.4570604,1.91962764 L0.919627639,1.91962764 L0.917792055,14.0822079 Z M24.054412,5.11996853 C23.8011014,5.11996853 23.5955159,4.91438311 23.5955159,4.66107251 L23.5955159,1.45889603 C23.5955159,1.20558542 23.8011014,1 24.054412,1 C24.3077226,1 24.513308,1.20558542 24.513308,1.45889603 L24.513308,4.66107251 C24.513308,4.9153009 24.3077226,5.11996853 24.054412,5.11996853 Z M19.3727547,7.17398715 C19.1194441,7.17398715 18.9138587,6.96840173 18.9138587,6.71509112 L18.9138587,1.45889603 C18.9138587,1.20558542 19.1194441,1 19.3727547,1 C19.6260653,1 19.8316507,1.20558542 19.8316507,1.45889603 L19.8316507,6.71509112 C19.8316507,6.96840173 19.6269831,7.17398715 19.3727547,7.17398715 Z M14.688344,5.11996853 C14.4350334,5.11996853 14.229448,4.91438311 14.229448,4.66107251 L14.229448,1.45889603 C14.229448,1.20558542 14.4350334,1 14.688344,1 C14.9416546,1 15.1472401,1.20558542 15.1472401,1.45889603 L15.1472401,4.66107251 C15.1472401,4.9153009 14.9416546,5.11996853 14.688344,5.11996853 Z M10.0030156,7.17398715 C9.749705,7.17398715 9.54411958,6.96840173 9.54411958,6.71509112 L9.54411958,1.45889603 C9.54411958,1.20558542 9.749705,1 10.0030156,1 C10.2563262,1 10.4619116,1.20558542 10.4619116,1.45889603 L10.4619116,6.71509112 C10.4619116,6.96840173 10.257244,7.17398715 10.0030156,7.17398715 Z M5.32227612,5.11905074 C5.06896552,5.11905074 4.8633801,4.91346532 4.8633801,4.66015471 L4.8633801,1.45889603 C4.8633801,1.20558542 5.06896552,1 5.32227612,1 C5.57558673,1 5.78117215,1.20558542 5.78117215,1.45889603 L5.78117215,4.66015471 C5.78117215,4.91438311 5.57558673,5.11905074 5.32227612,5.11905074 Z" id="Icons-/-Basic-/-Size-Guide"></path>
                    </g>
                </g>
            </g>
        </g>
    </g>
</svg>