<svg width="16" height="22" viewBox="0 0 16 22" fill="none" xmlns="http://www.w3.org/2000/svg">
    <path fill-rule="evenodd" clip-rule="evenodd" d="M5.50995 7.93981C5.50995 6.53031 6.65657 5.38306 8.0653 5.38306C9.47402 5.38306 10.6206 6.53031 10.6206 7.93981C10.6206 9.34931 9.47402 10.4966 8.0653 10.4966C6.65657 10.4966 5.50995 9.34931 5.50995 7.93981ZM6.24005 7.93981C6.24005 8.9468 7.05886 9.76606 8.0653 9.76606C9.07174 9.76606 9.89054 8.9468 9.89054 7.93981C9.89054 6.93281 9.07174 6.11356 8.0653 6.11356C7.05886 6.11356 6.24005 6.93281 6.24005 7.93981Z" fill="#35383F"/>
    <path fill-rule="evenodd" clip-rule="evenodd" d="M8.00071 1C9.87049 1 11.6286 1.72867 12.9508 3.05161C15.3977 5.49951 15.7018 10.1053 13.6009 12.9071L8.00071 21L2.3921 12.8958C0.299634 10.1053 0.60372 5.49951 3.05064 3.05161C4.37285 1.72867 6.13056 1 8.00071 1ZM8.00071 19.7165L13.0088 12.4802C14.9151 9.93694 14.6431 5.77747 12.4346 3.56807C11.25 2.3832 9.67555 1.7305 8.00071 1.7305C6.32586 1.7305 4.75141 2.3832 3.56719 3.56807C1.35864 5.77747 1.08668 9.93694 2.98457 12.4688L8.00071 19.7165Z" fill="#35383F"/>
    <path fill-rule="evenodd" clip-rule="evenodd" d="M5.50995 7.93981C5.50995 6.53031 6.65657 5.38306 8.0653 5.38306C9.47402 5.38306 10.6206 6.53031 10.6206 7.93981C10.6206 9.34931 9.47402 10.4966 8.0653 10.4966C6.65657 10.4966 5.50995 9.34931 5.50995 7.93981ZM6.24005 7.93981C6.24005 8.9468 7.05886 9.76606 8.0653 9.76606C9.07174 9.76606 9.89054 8.9468 9.89054 7.93981C9.89054 6.93281 9.07174 6.11356 8.0653 6.11356C7.05886 6.11356 6.24005 6.93281 6.24005 7.93981Z" stroke="#35383F" stroke-width="0.2"/>
    <path fill-rule="evenodd" clip-rule="evenodd" d="M8.00071 1C9.87049 1 11.6286 1.72867 12.9508 3.05161C15.3977 5.49951 15.7018 10.1053 13.6009 12.9071L8.00071 21L2.3921 12.8958C0.299634 10.1053 0.60372 5.49951 3.05064 3.05161C4.37285 1.72867 6.13056 1 8.00071 1ZM8.00071 19.7165L13.0088 12.4802C14.9151 9.93694 14.6431 5.77747 12.4346 3.56807C11.25 2.3832 9.67555 1.7305 8.00071 1.7305C6.32586 1.7305 4.75141 2.3832 3.56719 3.56807C1.35864 5.77747 1.08668 9.93694 2.98457 12.4688L8.00071 19.7165Z" stroke="#35383F" stroke-width="0.2"/>
</svg>
