<svg class="icon" width="12" height="22" viewBox="0 0 12 22" fill="none" xmlns="http://www.w3.org/2000/svg">
    <path d="M11.4085 1.13926C11.07 1.09375 9.96323 1 8.70171 1C5.79697 1 3.99248 2.85127 3.99248 5.83149V8.13848H1.25C1.11201 8.13848 1 8.25024 1 8.38848V11.855C1 11.9932 1.11201 12.105 1.25 12.105H3.99248V20.75C3.99248 20.8882 4.10449 21 4.24248 21H7.82148C7.95947 21 8.07148 20.8882 8.07148 20.75V12.105H10.8083C10.934 12.105 11.0402 12.0115 11.0563 11.887L11.5018 8.42046C11.511 8.34922 11.489 8.27744 11.4415 8.22344C11.394 8.16943 11.3257 8.13843 11.2538 8.13843H8.07153V6.1752C8.07153 5.24321 8.30552 4.73818 9.54053 4.73818L11.3753 4.73745C11.5133 4.73745 11.6253 4.62544 11.6253 4.48745V1.38701C11.6252 1.26177 11.5325 1.15576 11.4085 1.13926ZM11.125 4.2375L9.54019 4.23823C7.80518 4.23823 7.57119 5.21748 7.57119 6.17549V8.38872C7.57144 8.52671 7.6832 8.63848 7.82144 8.63848H10.9694L10.5882 11.605H7.82144C7.68345 11.605 7.57143 11.7167 7.57143 11.855V20.5H4.49219V11.855C4.49219 11.7167 4.38018 11.605 4.24219 11.605H1.49971V8.63848H4.24219C4.38018 8.63848 4.49219 8.52671 4.49219 8.38848V5.83174C4.49219 3.11948 6.06567 1.50024 8.70142 1.50024C9.73667 1.50024 10.6597 1.56401 11.1249 1.61025V4.2375H11.125Z" fill="#35383F" stroke="#35383F" stroke-width="0.5"/>
</svg>
